<?xml version="1.0" encoding="UTF-8" standalone="no"?>
<!-- Created with Inkscape (http://www.inkscape.org/) -->

<svg
   xmlns:dc="http://purl.org/dc/elements/1.1/"
   xmlns:cc="http://creativecommons.org/ns#"
   xmlns:rdf="http://www.w3.org/1999/02/22-rdf-syntax-ns#"
   xmlns:svg="http://www.w3.org/2000/svg"
   xmlns="http://www.w3.org/2000/svg"
   xmlns:sodipodi="http://sodipodi.sourceforge.net/DTD/sodipodi-0.dtd"
   xmlns:inkscape="http://www.inkscape.org/namespaces/inkscape"
   width="58.954643mm"
   height="57.63876mm"
   viewBox="0 0 58.954643 57.63876"
   version="1.1"
   id="svg852"
   inkscape:version="0.92.4 (5da689c313, 2019-01-14)"
   sodipodi:docname="logo.svg">
  <defs
     id="defs846" />
  <sodipodi:namedview
     id="base"
     pagecolor="#ffffff"
     bordercolor="#666666"
     borderopacity="1.0"
     inkscape:pageopacity="0.0"
     inkscape:pageshadow="2"
     inkscape:zoom="0.35"
     inkscape:cx="-290"
     inkscape:cy="217.14285"
     inkscape:document-units="mm"
     inkscape:current-layer="layer1"
     showgrid="false"
     inkscape:window-width="1366"
     inkscape:window-height="715"
     inkscape:window-x="0"
     inkscape:window-y="0"
     inkscape:window-maximized="1"
     fit-margin-top="-0.4"
     fit-margin-left="0"
     fit-margin-right="0"
     fit-margin-bottom="0"
     inkscape:pagecheckerboard="true"
     showborder="false" />
  <metadata
     id="metadata849">
    <rdf:RDF>
      <cc:Work
         rdf:about="">
        <dc:format>image/svg+xml</dc:format>
        <dc:type
           rdf:resource="http://purl.org/dc/dcmitype/StillImage" />
        <dc:title></dc:title>
      </cc:Work>
    </rdf:RDF>
  </metadata>
  <g
     inkscape:label="Capa 1"
     inkscape:groupmode="layer"
     id="layer1"
     transform="translate(0,-239.36124)">
    <path
       style="fill:#990000;fill-opacity:1;stroke:#990000;stroke-width:0.99999946;stroke-opacity:1"
       d="m 24.155279,296.38789 c -2.24722,-0.37007 -6.06258,-1.68814 -5.90605,-2.04019 0.0383,-0.0878 2.67041,-2.70297 5.8495,-5.81581 l 5.78015,-5.6595 5.73966,5.53624 c 3.15684,3.04508 5.7397,5.60436 5.7397,5.68747 0,0.30816 -5.63362,2.22833 -6.53746,2.22833 -0.17977,0 -1.35481,-0.9592 -2.61121,-2.13168 -1.25641,-1.17243 -2.37343,-2.13182 -2.48226,-2.13182 -0.10882,0 -1.25943,1.00488 -2.55689,2.23324 -1.29749,1.22842 -2.39149,2.22103 -2.43112,2.20566 -0.0395,-0.0175 -0.30241,-0.0672 -0.58402,-0.11194 z m -10.89155,-4.6447 c -0.8653,-0.61271 -1.9985,-1.49999 -2.51823,-1.97149 l -0.9449397,-0.85749 9.7717097,-9.94814 c 5.37445,-5.47134 9.84964,-9.97893 9.94494,-10.0168 0.20193,-0.081 19.90179,19.18029 19.9893,19.54327 0.0863,0.35723 -4.40791,3.97463 -4.93817,3.97463 -0.0979,0 -3.35628,-3.08351 -7.24107,-6.85221 -3.88478,-3.76868 -7.26267,-6.92813 -7.50645,-7.02094 -0.39064,-0.1491 -1.29631,0.68806 -7.63337,7.05511 -3.9546,3.97307 -7.22623,7.22054 -7.27032,7.21615 -0.0439,-0.005 -0.7881,-0.50923 -1.6534,-1.12209 z m 30.75685,-13.32388 c -4.22391,-4.25154 -8.21175,-8.3049 -8.86185,-9.00767 l -1.18199,-1.27747 9.02031,-8.69426 c 4.96115,-4.7818 9.10337,-8.72214 9.20493,-8.75663 0.23958,-0.0828 1.54271,1.69195 2.63296,3.5824 0.4725,0.81956 0.85907,1.53477 0.85907,1.59004 0,0.0556 -2.69563,2.83267 -5.99031,6.17271 -3.29468,3.34004 -6.02259,6.22334 -6.06206,6.40766 -0.0458,0.21375 1.31773,1.73031 3.78965,4.214 2.12375,2.13378 4.8141,4.84882 5.97851,6.03346 l 2.11711,2.15407 -0.45685,0.89157 c -0.76829,1.49894 -2.94356,4.46388 -3.25167,4.43217 -0.0648,-0.008 -3.57386,-3.4907 -7.79781,-7.74205 z m -37.7366797,6.18057 c -1.24454,-1.61922 -2.40351,-3.53958 -2.40351,-3.98228 0,-0.21114 2.48933,-2.90347 5.7855,-6.25732 4.2789497,-4.35382 5.7855197,-6.01214 5.7855197,-6.36787 0,-0.34916 -1.09775,-1.61166 -3.99991,-4.60022 -8.4315097,-8.68314 -7.6664797,-7.80928 -7.3848197,-8.43622 0.36943,-0.82215 2.95414,-4.69292 3.1985,-4.78969 0.11575,-0.0473 4.2566397,3.98861 9.2019397,8.96573 l 8.99149,9.04918 -8.99714,8.78504 c -4.94844,4.83173 -9.0608697,8.7886 -9.1387697,8.79294 -0.0779,0.005 -0.54535,-0.51709 -1.0388,-1.15929 z M 52.366069,273.05745 c -2.44989,-2.50652 -4.45433,-4.6704 -4.45433,-4.80873 0,-0.28506 8.94544,-9.21219 9.08818,-9.07021 0.0508,0.0521 0.33224,1.00598 0.62529,2.12267 0.78021,2.97267 1.03929,7.0883 0.64537,10.25146 -0.28091,2.25581 -1.02918,5.60484 -1.32375,5.9247 -0.0694,0.0768 -2.13086,-1.91354 -4.58076,-4.41989 z m -50.5021997,2.20798 c -0.53994,-2.31807 -0.84355,-4.01479 -0.87971002,-4.91574 l -0.0291,-0.72388 -0.13246,0.8119 c -0.21716,1.33152 -0.44534,-2.79354 -0.24147,-4.36491 0.16286,-1.25524 0.1737,-1.27495 0.22226,-0.40594 0.0385,0.68834 0.11846,0.3934 0.32445002,-1.19656 0.30386,-2.34596 0.86762,-5.10781 1.12763,-5.52523 0.12231,-0.1958 1.37966,0.95985 4.53222,4.16598 2.39961,2.44044 4.4425397,4.57253 4.5397597,4.73783 0.19919,0.33829 -1.02474,1.62717 -6.0462497,6.366 l -3.00227,2.83323 z m 17.7388197,-17.779 -9.7749197,-9.98292 0.8662497,-0.87538 c 0.47645,-0.48142 1.62932,-1.38416 2.56198,-2.00588 l 1.69571,-1.13035 7.21295,7.24696 c 6.36622,6.3962 7.26517,7.22712 7.65791,7.07796 0.24472,-0.0934 3.62302,-3.25257 7.50732,-7.02097 3.88428,-3.7687 7.14199,-6.85197 7.23931,-6.85197 0.52959,0 5.0234,3.61735 4.93731,3.9745 -0.0761,0.31674 -19.72451,19.57974 -19.95427,19.56328 -0.0961,-0.008 -4.57334,-4.50487 -9.94955,-9.99523 z m 4.38987,-9.64035 c -3.18708,-3.09536 -5.79053,-5.69412 -5.78551,-5.77438 0.009,-0.13079 2.83281,-1.05561 5.66404,-1.85436 l 1.047,-0.29552 2.12369,2.11256 c 1.51169,1.50358 2.26465,2.11237 2.61273,2.11237 0.33594,0 1.17864,-0.63526 2.69264,-2.0303 1.21202,-1.11638 2.33795,-2.03005 2.50208,-2.03005 0.88148,0 6.50901,1.92676 6.50901,2.22859 0,0.14876 -11.35629,11.17638 -11.49795,11.16492 -0.0401,-0.004 -2.68067,-2.5383 -5.86773,-5.63383 z"
       id="path2296-6"
       inkscape:connector-curvature="0"
       inkscape:export-xdpi="69"
       inkscape:export-ydpi="69"
       sodipodi:nodetypes="cccccsscscccccccccssccccccccccssccccccccssscccccccccsccccccccccccccccccccccccccsccccccccscsscc" />
  </g>
</svg>
