<?xml version="1.0" encoding="UTF-8" standalone="no"?>
<!-- Created with Inkscape (http://www.inkscape.org/) -->

<svg
   xmlns:dc="http://purl.org/dc/elements/1.1/"
   xmlns:cc="http://creativecommons.org/ns#"
   xmlns:rdf="http://www.w3.org/1999/02/22-rdf-syntax-ns#"
   xmlns:svg="http://www.w3.org/2000/svg"
   xmlns="http://www.w3.org/2000/svg"
   xmlns:sodipodi="http://sodipodi.sourceforge.net/DTD/sodipodi-0.dtd"
   xmlns:inkscape="http://www.inkscape.org/namespaces/inkscape"
   width="209.56258mm"
   height="57.63876mm"
   viewBox="0 0 209.56258 57.63876"
   version="1.1"
   id="svg2080"
   inkscape:version="0.92.4 (5da689c313, 2019-01-14)"
   sodipodi:docname="pdvsa.svg">
  <defs
     id="defs2074" />
  <sodipodi:namedview
     id="base"
     pagecolor="#ffffff"
     bordercolor="#666666"
     borderopacity="1.0"
     inkscape:pageopacity="0.0"
     inkscape:pageshadow="2"
     inkscape:zoom="0.45254834"
     inkscape:cx="483.83263"
     inkscape:cy="-145.33852"
     inkscape:document-units="mm"
     inkscape:current-layer="layer1"
     showgrid="false"
     inkscape:window-width="1366"
     inkscape:window-height="715"
     inkscape:window-x="0"
     inkscape:window-y="0"
     inkscape:window-maximized="1"
     fit-margin-top="0"
     fit-margin-left="0"
     fit-margin-right="0"
     fit-margin-bottom="0"
     inkscape:pagecheckerboard="true"
     showborder="false" />
  <metadata
     id="metadata2077">
    <rdf:RDF>
      <cc:Work
         rdf:about="">
        <dc:format>image/svg+xml</dc:format>
        <dc:type
           rdf:resource="http://purl.org/dc/dcmitype/StillImage" />
        <dc:title></dc:title>
      </cc:Work>
    </rdf:RDF>
  </metadata>
  <g
     inkscape:label="Capa 1"
     inkscape:groupmode="layer"
     id="layer1"
     transform="translate(3.1995892e-5,-239.36123)">
    <path
       style="fill:#990000;fill-opacity:1;stroke:#990000;stroke-width:0.99999946;stroke-opacity:1"
       d="m 24.155206,296.38788 c -2.247221,-0.37007 -6.062579,-1.68814 -5.906045,-2.04019 0.03833,-0.0878 2.670411,-2.70297 5.849498,-5.81582 l 5.780152,-5.65949 5.739655,5.53624 c 3.156845,3.04508 5.739699,5.60435 5.739699,5.68747 0,0.30816 -5.633613,2.22832 -6.537454,2.22832 -0.179773,0 -1.354815,-0.95919 -2.611218,-2.13167 -1.256409,-1.17243 -2.373428,-2.13182 -2.482253,-2.13182 -0.108826,0 -1.259431,1.00488 -2.556892,2.23324 -1.297489,1.22842 -2.391492,2.22102 -2.431116,2.20566 -0.03955,-0.0175 -0.302417,-0.0672 -0.584026,-0.11194 z m -10.891544,-4.6447 c -0.865302,-0.61271 -1.998502,-1.49999 -2.518238,-1.97149 l -0.9449337,-0.85749 9.7717047,-9.94814 c 5.374448,-5.47135 9.849647,-9.97893 9.944938,-10.0168 0.201935,-0.081 19.901794,19.18029 19.989302,19.54327 0.0863,0.35723 -4.407909,3.97462 -4.938167,3.97462 -0.09785,0 -3.356281,-3.08351 -7.241065,-6.8522 -3.884786,-3.76868 -7.262679,-6.92813 -7.506455,-7.02094 -0.390641,-0.14911 -1.296308,0.68806 -7.633374,7.05511 -3.954598,3.97307 -7.226226,7.22053 -7.27032,7.21615 -0.04391,-0.005 -0.788101,-0.50924 -1.653392,-1.12209 z M 44.020505,278.4193 c -4.223909,-4.25154 -8.211747,-8.3049 -8.861851,-9.00767 l -1.181985,-1.27747 9.020308,-8.69426 c 4.961145,-4.7818 9.103366,-8.72214 9.204929,-8.75663 0.239576,-0.0828 1.542713,1.69195 2.63296,3.5824 0.472497,0.81956 0.859069,1.53477 0.859069,1.59004 0,0.0556 -2.695632,2.83267 -5.990308,6.17271 -3.294678,3.34004 -6.022595,6.22334 -6.062056,6.40766 -0.0458,0.21375 1.317725,1.73031 3.789651,4.214 2.123745,2.13377 4.814093,4.84882 5.978504,6.03346 l 2.117108,2.15407 -0.456844,0.89157 c -0.768297,1.49894 -2.943562,4.46388 -3.251673,4.43217 -0.06475,-0.008 -3.573861,-3.49071 -7.797812,-7.74205 z m -37.7366774,6.18056 c -1.244543,-1.61921 -2.4035141,-3.53957 -2.4035141,-3.98227 0,-0.21114 2.4893293,-2.90347 5.785504,-6.25732 4.2789455,-4.35382 5.7855155,-6.01214 5.7855155,-6.36787 0,-0.34917 -1.097749,-1.61166 -3.999905,-4.60022 -8.4315061,-8.68314 -7.6664811,-7.80928 -7.3848212,-8.43622 0.3694292,-0.82215 2.9541361,-4.69292 3.1985024,-4.78969 0.1157441,-0.0473 4.2566368,3.98861 9.2019388,8.96573 l 8.991488,9.04918 -8.997142,8.78503 c -4.948436,4.83174 -9.0608679,8.78861 -9.1387643,8.79294 -0.077882,0.005 -0.5453566,-0.51708 -1.0388021,-1.15929 z M 164.03146,282.01184 c -3.05919,-0.68307 -5.61401,-2.52277 -6.76418,-4.87089 -0.74413,-1.51958 -1.0836,-2.93368 -0.73601,-3.06596 0.13446,-0.0523 1.8478,-0.069 3.80789,-0.0399 l 3.56345,0.0566 0.52773,0.89518 c 0.65911,1.1178 1.6704,1.65888 3.3469,1.79096 1.60006,0.1257 2.90979,-0.21815 3.6593,-0.96141 1.0911,-1.08117 0.61439,-2.51031 -1.10421,-3.31123 -0.59346,-0.27658 -2.32696,-0.8269 -3.85251,-1.22326 -4.44251,-1.15414 -6.187,-1.8532 -7.42553,-2.97521 -1.27779,-1.15767 -1.95601,-2.41566 -2.19112,-4.0647 -0.61294,-4.29849 1.80652,-7.5946 6.48654,-8.83757 0.65669,-0.17435 2.20751,-0.36852 3.44657,-0.4315 4.05657,-0.20556 7.42352,0.69347 9.5521,2.55098 1.05523,0.92058 2.14264,2.79697 2.34368,4.04361 l 0.13721,0.85041 h -3.71743 c -3.66619,0 -3.72021,-0.007 -3.89572,-0.45684 -0.24492,-0.62821 -1.00755,-1.26898 -1.83913,-1.54537 -0.9535,-0.31655 -2.75785,-0.29016 -3.58459,0.0529 -1.40694,0.58293 -1.7969,2.06997 -0.78819,3.00577 0.89455,0.82943 1.67194,1.13086 5.42825,2.10519 5.30483,1.37558 7.3688,2.52847 8.59187,4.79986 0.41469,0.76864 0.46943,1.15627 0.46943,3.3071 0,2.19998 -0.0518,2.54554 -0.53303,3.56228 -1.02998,2.17732 -2.67733,3.50634 -5.45852,4.40414 -1.36583,0.44048 -2.04068,0.52145 -4.86246,0.5834 -2.36394,0.0524 -3.64792,-0.0125 -4.60829,-0.22532 z m 44.86669,-0.42342 c 0.0111,-0.23645 0.0591,-0.28468 0.12377,-0.12274 0.0596,0.14653 0.0535,0.32164 -0.0187,0.38913 -0.0687,0.0688 -0.1166,-0.0533 -0.10771,-0.26639 z M 72.692105,268.6163 v -13.09961 l 5.683116,0.004 c 5.837613,0.004 9.770041,0.22078 11.473342,0.63465 2.608801,0.63364 4.935056,2.56034 5.787571,4.7937 0.259378,0.67896 0.491387,1.86352 0.554866,2.83327 0.248754,3.78757 -1.149668,6.81123 -3.815226,8.24949 -1.92994,1.04137 -2.712305,1.18322 -7.293442,1.32256 l -4.300754,0.13042 -0.102411,4.0608 -0.10237,4.06047 -3.942345,0.0558 -3.942347,0.0559 v -13.09912 z m 14.424948,-1.43241 c 1.177189,-0.58308 1.637673,-1.31237 1.633229,-2.58698 -0.005,-1.33854 -0.400025,-2.14439 -1.312835,-2.67452 -0.633412,-0.36806 -1.061963,-0.41642 -3.686318,-0.41642 h -2.969551 l -0.05726,2.83264 c -0.03163,1.55793 -0.0085,2.96171 0.05383,3.11955 0.182789,0.4721 5.276944,0.25189 6.338876,-0.27427 z m 13.427617,1.39946 v -13.12333 l 7.4238,0.11744 c 5.60372,0.0895 7.77507,0.19517 8.85737,0.43334 4.18797,0.92209 6.97923,3.76894 8.02411,8.18467 0.50738,2.14411 0.5092,6.90174 0.005,8.78148 -1.08796,4.04412 -4.15334,7.22937 -7.79863,8.10334 -1.60737,0.38537 -5.78835,0.61424 -11.33969,0.62055 l -5.17091,0.007 z m 13.28672,6.7168 c 1.44088,-0.42438 2.56383,-1.458 3.03356,-2.79278 0.29184,-0.83007 0.37008,-1.67718 0.36893,-3.99713 0,-2.65926 -0.0494,-3.04698 -0.48649,-4.01102 -0.98513,-2.16744 -2.6547,-2.94778 -6.09305,-2.8486 l -2.02049,0.059 -0.0556,6.6984 c -0.0332,3.68411 -0.0111,6.81317 0.0462,6.95361 0.14703,0.37989 3.85644,0.33679 5.20673,-0.0612 z m 22.83675,6.16657 c -0.37268,-0.59775 -8.81324,-25.66287 -8.68867,-25.80227 0.0786,-0.0876 1.87569,-0.13173 3.99703,-0.10139 l 3.85702,0.0567 2.16974,8.2222 c 1.19306,4.52265 2.24701,8.34188 2.34227,8.48776 0.54204,0.83221 0.82613,0.0974 3.19647,-8.28462 l 2.3827,-8.42534 3.83125,-0.0566 c 2.10703,-0.0334 3.83103,-0.0178 3.83103,0.0357 0,0.27278 -8.69614,25.64601 -8.86186,25.85699 -0.27635,0.35182 -7.83816,0.36468 -8.05698,0.0157 z m 45.39543,-0.0157 c 0.006,-0.13974 2.06047,-6.00947 4.56643,-13.04434 l 4.55663,-12.7903 4.00626,-0.0558 c 3.04842,-0.0438 4.05662,0.008 4.21563,0.20309 0.17696,0.21829 9.26869,25.57819 9.26869,25.85333 0,0.054 -1.72765,0.0727 -3.83983,0.043 l -3.84008,-0.0565 -0.36428,-1.21821 c -0.20018,-0.66984 -0.4803,-1.44642 -0.62205,-1.72572 l -0.25805,-0.50734 h -4.47562 c -5.09128,0 -4.57936,-0.20301 -5.25231,2.08067 l -0.43382,1.47209 h -3.76854 c -2.88383,0 -3.76653,-0.0603 -3.75906,-0.25369 z m 16.22599,-8.53329 c 0.13189,-0.34113 -2.33943,-8.9868 -2.65985,-9.30429 -0.18562,-0.18422 -0.31654,-0.18746 -0.52858,-0.0148 -0.3731,0.30682 -2.89979,8.84336 -2.7402,9.25627 0.10534,0.27159 0.5654,0.32143 2.97625,0.32143 2.12896,0 2.87727,-0.0672 2.95238,-0.26026 z m -145.923565,0.1397 c -2.449892,-2.50652 -4.454334,-4.6704 -4.454334,-4.80873 0,-0.28506 8.945443,-9.21219 9.088188,-9.07021 0.05079,0.0521 0.332233,1.00598 0.625287,2.12267 0.780214,2.97267 1.039292,7.0883 0.645371,10.25146 -0.280905,2.25581 -1.029182,5.60484 -1.323752,5.9247 -0.06942,0.0768 -2.130861,-1.91354 -4.58076,-4.41989 z m -50.502201,2.20799 c -0.5399324,-2.31808 -0.8435472,-4.0148 -0.87970313,-4.91574 l -0.0290643,-0.72389 -0.13245612,0.81191 c -0.21715819,1.33152 -0.44534728,-2.79354 -0.24147051,-4.36491 0.16285285,-1.25524 0.17370195,-1.27495 0.22226002,-0.40594 0.0384682,0.68833 0.11845507,0.3934 0.32444284,-1.19656 0.3038616,-2.34596 0.8676229,-5.10781 1.1276371,-5.52523 0.1223054,-0.1958 1.3796555,0.95985 4.5322128,4.16598 2.3996113,2.44044 4.4425423,4.57253 4.5397673,4.73783 0.199186,0.33829 -1.024744,1.62717 -6.0462514,6.366 l -3.0022691,2.83323 z m 17.738826,-17.779 -9.7749179,-9.98292 0.8662459,-0.87538 c 0.476451,-0.48142 1.629321,-1.38416 2.56198,-2.00588 l 1.695705,-1.13035 7.212952,7.24696 c 6.366219,6.3962 7.265172,7.22712 7.65791,7.07796 0.244722,-0.0934 3.623025,-3.25257 7.507327,-7.02097 3.884272,-3.7687 7.141981,-6.85197 7.239301,-6.85197 0.529595,0 5.023402,3.61735 4.937312,3.9745 -0.07606,0.31674 -19.724508,19.57974 -19.954263,19.56328 -0.09606,-0.008 -4.573345,-4.50487 -9.949552,-9.99523 z m 4.389872,-9.64035 c -3.187082,-3.09536 -5.790538,-5.69412 -5.785513,-5.77438 0.0094,-0.13079 2.83281,-1.05561 5.664042,-1.85436 l 1.047001,-0.29552 2.123684,2.11256 c 1.511688,1.50358 2.264646,2.11237 2.612729,2.11237 0.335945,0 1.178646,-0.63526 2.692639,-2.0303 1.212024,-1.11638 2.337956,-2.03005 2.502085,-2.03005 0.88148,0 6.509006,1.92676 6.509006,2.22859 0,0.14876 -11.356283,11.17638 -11.497943,11.16492 -0.04014,-0.004 -2.680678,-2.5383 -5.86773,-5.63383 z"
       id="path2296-6"
       inkscape:connector-curvature="0"
       inkscape:export-xdpi="69"
       inkscape:export-ydpi="69" />
  </g>
</svg>
